<!-- Generated by IcoMoon.io -->
<svg version="1.1" xmlns="http://www.w3.org/2000/svg" width="26" height="32" viewBox="0 0 26 32">
<title>attacement-folder</title>
<path d="M2.182 5.881v20.301c0 1.508 0.612 2.381 1.334 2.901 0.759 0.546 1.691 0.736 2.302 0.736h14.545c1.508 0 2.381-0.612 2.901-1.334 0.546-0.759 0.736-1.691 0.736-2.302v-17.114l-8.263-6.886h-9.919c-1.174 0-2.009 0.574-2.605 1.352-0.592 0.772-0.916 1.712-1.032 2.348zM2.059 2.648c0.798-1.041 2.024-1.921 3.759-1.921h10.445l9.191 7.659v17.795c0 0.844-0.247 2.093-1.010 3.152-0.789 1.096-2.099 1.939-4.081 1.939h-14.545c-0.844 0-2.093-0.247-3.152-1.010-1.096-0.789-1.939-2.099-1.939-4.081v-20.424l0.010-0.059c0.136-0.819 0.538-2.028 1.322-3.050z"></path>
<path d="M15.419 11.943c-0.554 0.090-1.039 0.41-1.3 0.671l-6.171 6.171c-0.284 0.284-0.745 0.284-1.029 0s-0.284-0.744 0-1.029l6.171-6.171c0.425-0.425 1.175-0.928 2.095-1.078 0.965-0.157 2.058 0.087 3.048 1.078s1.235 2.083 1.078 3.048c-0.15 0.92-0.653 1.669-1.078 2.094l-6.171 6.171c-0.254 0.254-0.695 0.551-1.246 0.641-0.596 0.097-1.261-0.062-1.84-0.641s-0.738-1.243-0.641-1.84c0.090-0.551 0.387-0.992 0.641-1.246l5.143-5.143c0.284-0.284 0.745-0.284 1.028 0s0.284 0.744 0 1.028l-5.143 5.143c-0.089 0.089-0.203 0.265-0.234 0.451-0.023 0.141-0.010 0.334 0.234 0.577s0.437 0.257 0.577 0.234c0.186-0.030 0.362-0.144 0.451-0.234l6.171-6.171c0.261-0.261 0.581-0.745 0.671-1.3 0.083-0.509-0.015-1.131-0.671-1.786s-1.277-0.754-1.786-0.671z"></path>
</svg>
