<!-- Generated by IcoMoon.io -->
<svg version="1.1" xmlns="http://www.w3.org/2000/svg" width="32" height="32" viewBox="0 0 32 32">
<title>back</title>
<path d="M11.245 1.019c0.321 0.304 0.334 0.81 0.031 1.131l-7.816 8.25h17.845c1.653 0 4.107 0.517 6.168 2.083 2.099 1.595 3.726 4.234 3.726 8.317s-1.627 6.721-3.726 8.317c-2.061 1.567-4.516 2.083-6.168 2.083h-19.705c-0.442 0-0.8-0.358-0.8-0.8s0.358-0.8 0.8-0.8h19.705c1.379 0 3.472-0.444 5.2-1.757 1.69-1.284 3.095-3.446 3.095-7.043s-1.404-5.759-3.095-7.043c-1.728-1.313-3.821-1.757-5.2-1.757h-17.845l7.816 8.25c0.304 0.321 0.29 0.827-0.031 1.131s-0.827 0.29-1.131-0.031l-9.095-9.6c-0.292-0.309-0.292-0.792 0-1.1l9.095-9.6c0.304-0.321 0.81-0.334 1.131-0.031z"></path>
</svg>
