<!-- Generated by IcoMoon.io -->
<svg version="1.1" xmlns="http://www.w3.org/2000/svg" width="25" height="32" viewBox="0 0 25 32">
<title>Bell</title>
<path d="M9.739 2.783c0-1.537 1.246-2.783 2.783-2.783s2.783 1.246 2.783 2.783v2.869c5.49 0.685 9.739 5.368 9.739 11.044v8.348c0 1.537-1.246 2.783-2.783 2.783h-5.565c0 2.305-1.869 4.174-4.174 4.174s-4.174-1.869-4.174-4.174h-5.565c-1.537 0-2.783-1.246-2.783-2.783v-8.348c0-5.676 4.249-10.36 9.739-11.044v-2.869zM22.261 26.435c0.768 0 1.391-0.623 1.391-1.391v-8.348c0-5.379-4.36-9.739-9.739-9.739h-2.783c-5.379 0-9.739 4.36-9.739 9.739v8.348c0 0.768 0.623 1.391 1.391 1.391h19.478zM9.739 27.826c0 1.537 1.246 2.783 2.783 2.783s2.783-1.246 2.783-2.783h-5.565z"></path>
</svg>
