<!-- Generated by IcoMoon.io -->
<svg version="1.1" xmlns="http://www.w3.org/2000/svg" width="26" height="32" viewBox="0 0 26 32">
<title>download</title>
<path d="M2.182 5.881v20.301c0 1.508 0.612 2.381 1.334 2.901 0.759 0.546 1.691 0.736 2.302 0.736h14.545c1.508 0 2.381-0.612 2.901-1.334 0.546-0.759 0.736-1.691 0.736-2.302v-17.114l-8.263-6.886h-9.919c-1.174 0-2.009 0.574-2.605 1.352-0.592 0.772-0.916 1.712-1.032 2.348zM2.059 2.648c0.798-1.041 2.024-1.921 3.759-1.921h10.445l9.191 7.659v17.795c0 0.844-0.247 2.093-1.010 3.152-0.789 1.096-2.099 1.939-4.081 1.939h-14.545c-0.844 0-2.093-0.247-3.152-1.010-1.096-0.789-1.939-2.099-1.939-4.081v-20.424l0.010-0.059c0.136-0.819 0.538-2.028 1.322-3.050z"></path>
<path d="M8.727 21.091c0-0.402 0.326-0.727 0.727-0.727h7.273c0.402 0 0.727 0.326 0.727 0.727v0c0 0.402-0.326 0.727-0.727 0.727h-7.273c-0.402 0-0.727-0.326-0.727-0.727v0z"></path>
<path d="M13.091 9.455c0.402 0 0.727 0.326 0.727 0.727v5.517l3.122-3.122c0.284-0.284 0.745-0.284 1.029 0s0.284 0.745 0 1.028l-4.364 4.364c-0.284 0.284-0.745 0.284-1.028 0l-4.364-4.364c-0.284-0.284-0.284-0.745 0-1.028s0.745-0.284 1.028 0l3.122 3.122v-5.517c0-0.402 0.326-0.727 0.727-0.727z"></path>
</svg>
