<!-- Generated by IcoMoon.io -->
<svg version="1.1" xmlns="http://www.w3.org/2000/svg" width="44" height="32" viewBox="0 0 44 32">
<title>Envelope</title>
<path d="M36 2c3.314 0 6 2.686 6 6v16c0 3.314-2.686 6-6 6h-28c-3.314 0-6-2.686-6-6v-16c0-3.314 2.686-6 6-6h28zM8 0c-4.418 0-8 3.582-8 8v16c0 4.418 3.582 8 8 8h28c4.418 0 8-3.582 8-8v-16c0-4.418-3.582-8-8-8h-28z"></path>
<path d="M7.225 9.368c0.349-0.428 0.979-0.492 1.407-0.142l11.974 9.775h2.787l11.974-9.775c0.428-0.349 1.058-0.286 1.407 0.142s0.286 1.058-0.142 1.407l-12.25 10c-0.179 0.146-0.402 0.225-0.632 0.225h-3.5c-0.23 0-0.454-0.080-0.632-0.225l-12.25-10c-0.428-0.349-0.492-0.979-0.142-1.407z"></path>
</svg>
