<!-- Generated by IcoMoon.io -->
<svg version="1.1" xmlns="http://www.w3.org/2000/svg" width="26" height="32" viewBox="0 0 26 32">
<title>eye</title>
<path d="M2.182 5.881v20.301c0 1.508 0.612 2.381 1.334 2.901 0.759 0.546 1.691 0.736 2.302 0.736h14.545c1.508 0 2.381-0.612 2.901-1.334 0.546-0.759 0.736-1.691 0.736-2.302v-17.114l-8.263-6.886h-9.919c-1.174 0-2.009 0.574-2.605 1.352-0.592 0.772-0.916 1.712-1.032 2.348zM2.059 2.648c0.798-1.041 2.024-1.921 3.759-1.921h10.445l9.191 7.659v17.795c0 0.844-0.247 2.093-1.010 3.152-0.789 1.096-2.099 1.939-4.081 1.939h-14.545c-0.844 0-2.093-0.247-3.152-1.010-1.096-0.789-1.939-2.099-1.939-4.081v-20.424l0.010-0.059c0.136-0.819 0.538-2.028 1.322-3.050z"></path>
<path d="M13.091 11.818c-3.641 0-6.373 2.226-7.178 4.909h-1.549c0.825-3.735 4.419-6.545 8.727-6.545s7.902 2.811 8.727 6.545c-0.825 3.735-4.419 6.545-8.727 6.545s-7.902-2.811-8.728-6.545h1.549c0.805 2.683 3.537 4.909 7.178 4.909s6.373-2.226 7.178-4.909c-0.805-2.683-3.537-4.909-7.178-4.909z"></path>
<path d="M14.275 17.106c-0.251 0.189-0.665 0.348-1.184 0.348s-0.933-0.16-1.184-0.348c-0.251-0.188-0.27-0.337-0.27-0.379s0.019-0.191 0.27-0.379c0.251-0.189 0.665-0.348 1.184-0.348s0.933 0.16 1.184 0.348c0.251 0.188 0.27 0.337 0.27 0.379s-0.019 0.191-0.27 0.379zM13.091 18.909c1.607 0 2.909-0.977 2.909-2.182s-1.302-2.182-2.909-2.182c-1.607 0-2.909 0.977-2.909 2.182s1.302 2.182 2.909 2.182z"></path>
</svg>
