<!-- Generated by IcoMoon.io -->
<svg version="1.1" xmlns="http://www.w3.org/2000/svg" width="36" height="32" viewBox="0 0 36 32">
<title>folder</title>
<path d="M17.778 7.111c-0.471 0-0.924-0.187-1.257-0.521l-4.813-4.813h-8.152c-0.982 0-1.778 0.796-1.778 1.778v24.889c0 0.982 0.796 1.778 1.778 1.778h28.444c0.982 0 1.778-0.796 1.778-1.778v-19.556c0-0.982-0.796-1.778-1.778-1.778h-14.222zM12.444 0l5.333 5.333h14.222c1.964 0 3.556 1.592 3.556 3.556v19.556c0 1.964-1.592 3.556-3.556 3.556h-28.444c-1.964 0-3.556-1.592-3.556-3.556v-24.889c0-1.964 1.592-3.556 3.556-3.556h8.889z"></path>
<path d="M16 23.111h12.444v3.556h-12.444v-3.556z"></path>
</svg>
