<!-- Generated by IcoMoon.io -->
<svg version="1.1" xmlns="http://www.w3.org/2000/svg" width="32" height="32" viewBox="0 0 32 32">
<title>logo</title>
<path fill="#011aff" d="M4.35 15.683c-0.862 0.28-1.334 1.206-1.054 2.068l4.057 12.486c0.28 0.862 1.206 1.334 2.068 1.054l10.145-3.296c4.31-1.4 6.668-6.029 5.268-10.339-0.192-0.59-0.444-1.144-0.748-1.656-0.91 0.957-2.064 1.707-3.407 2.144l-10.145 3.296c-0.862 0.28-1.788-0.192-2.068-1.054l-1.775-5.462-2.341 0.761z"></path>
<path fill="#00a3ff" d="M24.085 15.999c-0.91 0.957-2.064 1.707-3.407 2.144l-10.145 3.296c-0.862 0.28-1.788-0.192-2.068-1.054l-1.775-5.462 7.803-2.535c3.72-1.209 7.677 0.383 9.591 3.612z"></path>
<path fill="#6cccff" d="M5.462 5.832c-0.862 0.28-1.334 1.206-1.054 2.068l2.282 7.023 7.803-2.535c3.72-1.209 7.677 0.383 9.591 3.612 2.008-2.112 2.824-5.229 1.861-8.195-1.4-4.31-6.029-6.668-10.339-5.268l-10.145 3.296z"></path>
</svg>
