<!-- Generated by IcoMoon.io -->
<svg version="1.1" xmlns="http://www.w3.org/2000/svg" width="20" height="32" viewBox="0 0 20 32">
<title>Microphone</title>
<path d="M9.143 25.905h1.524v6.095h-1.524v-6.095z"></path>
<path d="M4.571 30.476h10.667v1.524h-10.667v-1.524z"></path>
<path d="M0.707 10.667c-0.391 0-0.707 0.317-0.707 0.707v3.864c0 5.891 4.434 10.667 9.905 10.667s9.905-4.776 9.905-10.667v-3.864c0-0.391-0.317-0.707-0.707-0.707s-0.707 0.317-0.707 0.707v3.864c0 5.049-3.801 9.143-8.49 9.143s-8.49-4.093-8.49-9.143v-3.864c0-0.391-0.317-0.707-0.707-0.707z"></path>
<path d="M15.238 16c0 2.946-2.388 5.333-5.333 5.333s-5.333-2.388-5.333-5.333v-9.143c0-2.946 2.388-5.333 5.333-5.333s5.333 2.388 5.333 5.333v9.143zM9.905 0c-3.787 0-6.857 3.070-6.857 6.857v9.143c0 3.787 3.070 6.857 6.857 6.857s6.857-3.070 6.857-6.857v-9.143c0-3.787-3.070-6.857-6.857-6.857z"></path>
</svg>
