<!-- Generated by IcoMoon.io -->
<svg version="1.1" xmlns="http://www.w3.org/2000/svg" width="144" height="32" viewBox="0 0 144 32">
<title>Options</title>
<path fill="#5f616b" d="M32 16c0 8.837-7.163 16-16 16s-16-7.163-16-16c0-8.837 7.163-16 16-16s16 7.163 16 16z"></path>
<path fill="#5f616b" d="M88 16c0 8.837-7.163 16-16 16s-16-7.163-16-16 7.163-16 16-16c8.837 0 16 7.163 16 16z"></path>
<path fill="#5f616b" d="M144 16c0 8.837-7.163 16-16 16s-16-7.163-16-16c0-8.837 7.163-16 16-16s16 7.163 16 16z"></path>
</svg>
