<!-- Generated by IcoMoon.io -->
<svg version="1.1" xmlns="http://www.w3.org/2000/svg" width="32" height="32" viewBox="0 0 32 32">
<title>Paperclip</title>
<path d="M21.065 5.071c-1.487 0.419-2.843 1.404-3.625 2.186l-0.566 0.566c-0.312 0.312-0.819 0.312-1.131 0s-0.312-0.819 0-1.131l0.566-0.566c0.915-0.915 2.5-2.080 4.322-2.594 1.864-0.526 4.025-0.372 5.86 1.463s1.989 3.996 1.463 5.86c-0.514 1.822-1.68 3.408-2.594 4.322l-10.182 10.182c-0.915 0.915-2.5 2.080-4.322 2.594-1.864 0.526-4.025 0.372-5.86-1.463s-1.989-3.996-1.463-5.86c0.514-1.822 1.679-3.408 2.594-4.322l5.091-5.091c0.575-0.575 1.572-1.311 2.733-1.638 1.202-0.339 2.628-0.242 3.829 0.959s1.299 2.627 0.96 3.829c-0.327 1.161-1.063 2.157-1.638 2.733l-4.073 4.073c-0.312 0.312-0.819 0.312-1.131 0s-0.312-0.819 0-1.131l4.073-4.073c0.443-0.443 0.997-1.211 1.23-2.036 0.221-0.783 0.149-1.564-0.551-2.263s-1.48-0.772-2.263-0.551c-0.825 0.233-1.593 0.787-2.036 1.23l-5.091 5.091c-0.782 0.782-1.766 2.139-2.186 3.625-0.408 1.445-0.279 2.961 1.054 4.294s2.849 1.462 4.294 1.054c1.487-0.419 2.843-1.404 3.625-2.186l10.182-10.182c0.782-0.782 1.766-2.139 2.186-3.625 0.408-1.445 0.279-2.961-1.054-4.294s-2.849-1.462-4.294-1.054z"></path>
</svg>
