<!-- Generated by IcoMoon.io -->
<svg version="1.1" xmlns="http://www.w3.org/2000/svg" width="32" height="32" viewBox="0 0 32 32">
<title>pdf-1</title>
<path fill="#011aff" d="M2.909 8.727c0-4.82 3.907-8.727 8.727-8.727h8.727c4.82 0 8.727 3.907 8.727 8.727v8.727c0 4.82-3.907 8.727-8.727 8.727h-8.727c-4.82 0-8.727-3.907-8.727-8.727v-8.727z"></path>
<path fill="#f3f4ff" d="M8.708 16.054c-0.16 0-0.295-0.054-0.403-0.163s-0.163-0.243-0.163-0.403c0-0.16 0.054-0.295 0.163-0.403s0.243-0.163 0.403-0.163c0.155 0 0.287 0.054 0.396 0.163s0.163 0.243 0.163 0.403c0 0.16-0.054 0.295-0.163 0.403s-0.241 0.163-0.396 0.163z"></path>
<path fill="#f3f4ff" d="M13.992 12.214c0 0.274-0.065 0.533-0.194 0.776s-0.336 0.442-0.621 0.597c-0.284 0.15-0.649 0.225-1.094 0.225h-0.977v2.188h-0.884v-5.392h1.862c0.414 0 0.763 0.072 1.047 0.217 0.29 0.14 0.504 0.331 0.644 0.574 0.145 0.243 0.217 0.515 0.217 0.815zM12.084 13.122c0.336 0 0.587-0.080 0.752-0.241s0.248-0.383 0.248-0.667c0-0.29-0.083-0.515-0.248-0.675s-0.416-0.241-0.752-0.241h-0.977v1.823h0.977z"></path>
<path fill="#f3f4ff" d="M16.597 10.608c0.574 0 1.076 0.111 1.505 0.334 0.434 0.217 0.768 0.533 1.001 0.946 0.238 0.409 0.357 0.887 0.357 1.435s-0.119 1.024-0.357 1.427c-0.233 0.403-0.566 0.714-1.001 0.931-0.429 0.212-0.931 0.318-1.505 0.318h-1.761v-5.392h1.761zM16.597 15.325c0.626 0 1.107-0.178 1.443-0.535 0.341-0.357 0.512-0.846 0.512-1.466 0-0.626-0.171-1.115-0.512-1.466-0.336-0.357-0.817-0.535-1.443-0.535h-0.877v4.003h0.877z"></path>
<path fill="#f3f4ff" d="M23.508 10.608v0.69h-2.288v1.637h1.784v0.683h-1.784v2.382h-0.884v-5.391h3.173z"></path>
</svg>
