<!-- Generated by IcoMoon.io -->
<svg version="1.1" xmlns="http://www.w3.org/2000/svg" width="32" height="32" viewBox="0 0 32 32">
<title>pdf-2</title>
<path fill="#3843ad" d="M3.2 11.2c0-5.302 4.298-9.6 9.6-9.6h6.4c5.302 0 9.6 4.298 9.6 9.6v6.4c0 5.302-4.298 9.6-9.6 9.6h-6.4c-5.302 0-9.6-4.298-9.6-9.6v-6.4z"></path>
<path fill="#011aff" d="M5.2 10.8c0-3.976 3.224-7.2 7.2-7.2h7.2c3.976 0 7.2 3.224 7.2 7.2v7.2c0 3.976-3.224 7.2-7.2 7.2h-7.2c-3.976 0-7.2-3.224-7.2-7.2v-7.2z"></path>
<path fill="#f3f4ff" d="M9.984 16.845c-0.132 0-0.243-0.045-0.333-0.134s-0.134-0.201-0.134-0.333c0-0.132 0.045-0.243 0.134-0.333s0.201-0.134 0.333-0.134c0.128 0 0.237 0.045 0.326 0.134s0.134 0.201 0.134 0.333c0 0.132-0.045 0.243-0.134 0.333s-0.198 0.134-0.326 0.134z"></path>
<path fill="#f3f4ff" d="M14.344 13.677c0 0.226-0.053 0.439-0.16 0.64s-0.277 0.365-0.512 0.493c-0.235 0.124-0.535 0.186-0.902 0.186h-0.806v1.805h-0.73v-4.448h1.536c0.341 0 0.629 0.060 0.864 0.179 0.239 0.115 0.416 0.273 0.531 0.474 0.119 0.201 0.179 0.425 0.179 0.672zM12.769 14.426c0.277 0 0.484-0.066 0.621-0.198s0.205-0.316 0.205-0.55c0-0.239-0.068-0.425-0.205-0.557s-0.343-0.198-0.621-0.198h-0.806v1.504h0.806z"></path>
<path fill="#f3f4ff" d="M16.492 12.352c0.474 0 0.887 0.092 1.242 0.275 0.358 0.179 0.634 0.439 0.826 0.781 0.196 0.337 0.294 0.732 0.294 1.184s-0.098 0.845-0.294 1.178c-0.192 0.333-0.467 0.589-0.826 0.768-0.354 0.175-0.768 0.262-1.242 0.262h-1.453v-4.448h1.453zM16.492 16.243c0.516 0 0.913-0.147 1.19-0.442 0.282-0.294 0.422-0.698 0.422-1.21 0-0.516-0.141-0.919-0.422-1.21-0.277-0.294-0.674-0.442-1.19-0.442h-0.723v3.302h0.723z"></path>
<path fill="#f3f4ff" d="M22.194 12.352v0.57h-1.888v1.35h1.472v0.563h-1.472v1.965h-0.73v-4.448h2.618z"></path>
</svg>
