<!-- Generated by IcoMoon.io -->
<svg version="1.1" xmlns="http://www.w3.org/2000/svg" width="68" height="32" viewBox="0 0 68 32">
<title>reminder</title>
<path fill="#f5f6f9" d="M9.532 9.532c0-0.752 0.61-1.362 1.362-1.362h45.617c0.752 0 1.362 0.61 1.362 1.362v7.489c0 0.752-0.61 1.362-1.362 1.362h-45.617c-0.752 0-1.362-0.61-1.362-1.362v-7.489z"></path>
<path fill="#fafafc" d="M32.694 7.239c0.54-0.596 1.477-0.596 2.017 0l0.169 0.186c0.794 0.875 0.173 2.277-1.009 2.277h-0.338c-1.182 0-1.802-1.402-1.009-2.277l0.169-0.186z"></path>
<path fill="#3a3e61" d="M17.021 13.277c0 0.94-0.762 1.702-1.702 1.702s-1.702-0.762-1.702-1.702c0-0.94 0.762-1.702 1.702-1.702s1.702 0.762 1.702 1.702z"></path>
<path fill="#e5e5eb" d="M15.465 12.255h-0.292v0.875h-0.875v0.292h0.875v0.875h0.292v-0.875h0.875v-0.292h-0.875v-0.875z"></path>
</svg>
