<!-- Generated by IcoMoon.io -->
<svg version="1.1" xmlns="http://www.w3.org/2000/svg" width="36" height="32" viewBox="0 0 36 32">
<title>Send</title>
<path fill="#000" d="M8.828 11.77c0-4.063 3.294-7.356 7.356-7.356h3.678c4.063 0 7.356 3.294 7.356 7.356v3.678c0 4.063-3.294 7.356-7.356 7.356h-3.678c-4.063 0-7.356-3.294-7.356-7.356v-3.678z"></path>
<path fill="#fafaff" d="M14.65 13.877c-0.408-0.214-0.39-0.804 0.030-0.992l5.97-2.676c0.463-0.207 0.937 0.267 0.729 0.729l-2.676 5.97c-0.188 0.42-0.778 0.438-0.992 0.030l-1.026-1.958c-0.017-0.033-0.044-0.060-0.078-0.078l-1.958-1.026zM14.831 13.22c-0.14 0.063-0.146 0.259-0.010 0.331l1.94 1.016 4.009-4.009-5.939 2.662zM21.030 10.818l-4.009 4.009 1.016 1.94c0.071 0.136 0.268 0.13 0.331-0.010l2.662-5.939z"></path>
</svg>
