<!-- Generated by IcoMoon.io -->
<svg version="1.1" xmlns="http://www.w3.org/2000/svg" width="29" height="32" viewBox="0 0 29 32">
<title>trash</title>
<path d="M24.727 5.818v20.364c0 2.41-1.954 4.364-4.364 4.364h-11.636c-2.41 0-4.364-1.954-4.364-4.364v-20.364h20.364zM2.909 4.364v21.818c0 3.213 2.605 5.818 5.818 5.818h11.636c3.213 0 5.818-2.605 5.818-5.818v-21.818h-23.273z"></path>
<path d="M0 4.364h29.091v1.455h-29.091v-1.455z"></path>
<path d="M10.182 10.182h1.455v16h-1.455v-16z"></path>
<path d="M17.455 10.182h1.455v16h-1.455v-16z"></path>
<path d="M16 1.455c0.803 0 1.455 0.651 1.455 1.455v1.455h-5.818v-1.455c0-0.803 0.651-1.455 1.455-1.455h2.909zM13.091 0c-1.607 0-2.909 1.302-2.909 2.909v2.909h8.727v-2.909c0-1.607-1.302-2.909-2.909-2.909h-2.909z"></path>
</svg>
