<svg aria-hidden="true" style="position: absolute; width: 0; height: 0; overflow: hidden;" version="1.1" xmlns="http://www.w3.org/2000/svg" xmlns:xlink="http://www.w3.org/1999/xlink">
<defs>
<symbol id="icon-Add" viewBox="0 0 32 32">
<path d="M18.607 31.789c-0.849 0.139-1.72 0.211-2.607 0.211s-1.759-0.072-2.607-0.211l0.172-1.053c0.792 0.13 1.605 0.197 2.435 0.197s1.643-0.068 2.435-0.197l0.172 1.053zM10.362 30.978l0.376-0.998c-1.541-0.58-2.961-1.408-4.212-2.436l-0.677 0.824c1.34 1.101 2.861 1.988 4.513 2.61zM3.631 26.15l0.824-0.677c-1.028-1.251-1.856-2.671-2.436-4.212l-0.998 0.376c0.622 1.652 1.509 3.173 2.61 4.513zM0.211 18.607l1.053-0.172c-0.13-0.792-0.197-1.605-0.197-2.435s0.068-1.643 0.197-2.435l-1.053-0.172c-0.139 0.849-0.211 1.72-0.211 2.607s0.072 1.759 0.211 2.607zM1.022 10.362l0.998 0.376c0.58-1.541 1.408-2.961 2.436-4.212l-0.824-0.677c-1.101 1.34-1.988 2.861-2.61 4.513zM5.85 3.631l0.677 0.824c1.251-1.028 2.671-1.856 4.212-2.436l-0.376-0.998c-1.652 0.622-3.173 1.509-4.513 2.61zM13.393 0.211c0.849-0.139 1.72-0.211 2.607-0.211s1.759 0.072 2.607 0.211l-0.172 1.053c-0.792-0.13-1.605-0.197-2.435-0.197s-1.643 0.068-2.435 0.197l-0.172-1.053zM21.638 1.022l-0.376 0.998c1.541 0.58 2.961 1.408 4.212 2.436l0.677-0.824c-1.34-1.101-2.861-1.988-4.513-2.61zM28.369 5.85l-0.824 0.677c1.028 1.251 1.856 2.671 2.436 4.212l0.998-0.376c-0.622-1.652-1.509-3.173-2.61-4.513zM31.789 13.393l-1.053 0.172c0.13 0.792 0.197 1.605 0.197 2.435s-0.068 1.643-0.197 2.435l1.053 0.172c0.139-0.849 0.211-1.72 0.211-2.607s-0.072-1.759-0.211-2.607zM30.978 21.638l-0.998-0.376c-0.58 1.541-1.408 2.961-2.436 4.212l0.824 0.677c1.101-1.34 1.988-2.861 2.61-4.513zM26.15 28.369l-0.677-0.824c-1.251 1.028-2.671 1.856-4.212 2.436l0.376 0.998c1.652-0.622 3.173-1.509 4.513-2.61z"></path>
<path d="M14.933 8.533h2.133v14.933h-2.133v-14.933z"></path>
<path d="M23.467 14.933v2.133h-14.933v-2.133h14.933z"></path>
</symbol>
<symbol id="icon-attacement-folder" viewBox="0 0 26 32">
<path d="M2.182 5.881v20.301c0 1.508 0.612 2.381 1.334 2.901 0.759 0.546 1.691 0.736 2.302 0.736h14.545c1.508 0 2.381-0.612 2.901-1.334 0.546-0.759 0.736-1.691 0.736-2.302v-17.114l-8.263-6.886h-9.919c-1.174 0-2.009 0.574-2.605 1.352-0.592 0.772-0.916 1.712-1.032 2.348zM2.059 2.648c0.798-1.041 2.024-1.921 3.759-1.921h10.445l9.191 7.659v17.795c0 0.844-0.247 2.093-1.010 3.152-0.789 1.096-2.099 1.939-4.081 1.939h-14.545c-0.844 0-2.093-0.247-3.152-1.010-1.096-0.789-1.939-2.099-1.939-4.081v-20.424l0.010-0.059c0.136-0.819 0.538-2.028 1.322-3.050z"></path>
<path d="M15.419 11.943c-0.554 0.090-1.039 0.41-1.3 0.671l-6.171 6.171c-0.284 0.284-0.745 0.284-1.029 0s-0.284-0.744 0-1.029l6.171-6.171c0.425-0.425 1.175-0.928 2.095-1.078 0.965-0.157 2.058 0.087 3.048 1.078s1.235 2.083 1.078 3.048c-0.15 0.92-0.653 1.669-1.078 2.094l-6.171 6.171c-0.254 0.254-0.695 0.551-1.246 0.641-0.596 0.097-1.261-0.062-1.84-0.641s-0.738-1.243-0.641-1.84c0.090-0.551 0.387-0.992 0.641-1.246l5.143-5.143c0.284-0.284 0.745-0.284 1.028 0s0.284 0.744 0 1.028l-5.143 5.143c-0.089 0.089-0.203 0.265-0.234 0.451-0.023 0.141-0.010 0.334 0.234 0.577s0.437 0.257 0.577 0.234c0.186-0.030 0.362-0.144 0.451-0.234l6.171-6.171c0.261-0.261 0.581-0.745 0.671-1.3 0.083-0.509-0.015-1.131-0.671-1.786s-1.277-0.754-1.786-0.671z"></path>
</symbol>
<symbol id="icon-back" viewBox="0 0 32 32">
<path d="M11.245 1.019c0.321 0.304 0.334 0.81 0.031 1.131l-7.816 8.25h17.845c1.653 0 4.107 0.517 6.168 2.083 2.099 1.595 3.726 4.234 3.726 8.317s-1.627 6.721-3.726 8.317c-2.061 1.567-4.516 2.083-6.168 2.083h-19.705c-0.442 0-0.8-0.358-0.8-0.8s0.358-0.8 0.8-0.8h19.705c1.379 0 3.472-0.444 5.2-1.757 1.69-1.284 3.095-3.446 3.095-7.043s-1.404-5.759-3.095-7.043c-1.728-1.313-3.821-1.757-5.2-1.757h-17.845l7.816 8.25c0.304 0.321 0.29 0.827-0.031 1.131s-0.827 0.29-1.131-0.031l-9.095-9.6c-0.292-0.309-0.292-0.792 0-1.1l9.095-9.6c0.304-0.321 0.81-0.334 1.131-0.031z"></path>
</symbol>
<symbol id="icon-Bell" viewBox="0 0 25 32">
<path d="M9.739 2.783c0-1.537 1.246-2.783 2.783-2.783s2.783 1.246 2.783 2.783v2.869c5.49 0.685 9.739 5.368 9.739 11.044v8.348c0 1.537-1.246 2.783-2.783 2.783h-5.565c0 2.305-1.869 4.174-4.174 4.174s-4.174-1.869-4.174-4.174h-5.565c-1.537 0-2.783-1.246-2.783-2.783v-8.348c0-5.676 4.249-10.36 9.739-11.044v-2.869zM22.261 26.435c0.768 0 1.391-0.623 1.391-1.391v-8.348c0-5.379-4.36-9.739-9.739-9.739h-2.783c-5.379 0-9.739 4.36-9.739 9.739v8.348c0 0.768 0.623 1.391 1.391 1.391h19.478zM9.739 27.826c0 1.537 1.246 2.783 2.783 2.783s2.783-1.246 2.783-2.783h-5.565z"></path>
</symbol>
<symbol id="icon-Caret" viewBox="0 0 43 32">
<path d="M25.658 26.007c-2.129 2.95-6.521 2.95-8.649 0l-12.668-17.553c-2.546-3.527-0.025-8.454 4.325-8.454h25.336c4.35 0 6.87 4.927 4.325 8.454l-12.668 17.553z"></path>
</symbol>
<symbol id="icon-download" viewBox="0 0 26 32">
<path d="M2.182 5.881v20.301c0 1.508 0.612 2.381 1.334 2.901 0.759 0.546 1.691 0.736 2.302 0.736h14.545c1.508 0 2.381-0.612 2.901-1.334 0.546-0.759 0.736-1.691 0.736-2.302v-17.114l-8.263-6.886h-9.919c-1.174 0-2.009 0.574-2.605 1.352-0.592 0.772-0.916 1.712-1.032 2.348zM2.059 2.648c0.798-1.041 2.024-1.921 3.759-1.921h10.445l9.191 7.659v17.795c0 0.844-0.247 2.093-1.010 3.152-0.789 1.096-2.099 1.939-4.081 1.939h-14.545c-0.844 0-2.093-0.247-3.152-1.010-1.096-0.789-1.939-2.099-1.939-4.081v-20.424l0.010-0.059c0.136-0.819 0.538-2.028 1.322-3.050z"></path>
<path d="M8.727 21.091c0-0.402 0.326-0.727 0.727-0.727h7.273c0.402 0 0.727 0.326 0.727 0.727v0c0 0.402-0.326 0.727-0.727 0.727h-7.273c-0.402 0-0.727-0.326-0.727-0.727v0z"></path>
<path d="M13.091 9.455c0.402 0 0.727 0.326 0.727 0.727v5.517l3.122-3.122c0.284-0.284 0.745-0.284 1.029 0s0.284 0.745 0 1.028l-4.364 4.364c-0.284 0.284-0.745 0.284-1.028 0l-4.364-4.364c-0.284-0.284-0.284-0.745 0-1.028s0.745-0.284 1.028 0l3.122 3.122v-5.517c0-0.402 0.326-0.727 0.727-0.727z"></path>
</symbol>
<symbol id="icon-Envelope" viewBox="0 0 44 32">
<path d="M36 2c3.314 0 6 2.686 6 6v16c0 3.314-2.686 6-6 6h-28c-3.314 0-6-2.686-6-6v-16c0-3.314 2.686-6 6-6h28zM8 0c-4.418 0-8 3.582-8 8v16c0 4.418 3.582 8 8 8h28c4.418 0 8-3.582 8-8v-16c0-4.418-3.582-8-8-8h-28z"></path>
<path d="M7.225 9.368c0.349-0.428 0.979-0.492 1.407-0.142l11.974 9.775h2.787l11.974-9.775c0.428-0.349 1.058-0.286 1.407 0.142s0.286 1.058-0.142 1.407l-12.25 10c-0.179 0.146-0.402 0.225-0.632 0.225h-3.5c-0.23 0-0.454-0.080-0.632-0.225l-12.25-10c-0.428-0.349-0.492-0.979-0.142-1.407z"></path>
</symbol>
<symbol id="icon-Expand" viewBox="0 0 32 32">
<path d="M0 21.872h1.524v6.542l10.128-10.128 1.078 1.078-10.128 10.128h6.542v1.524h-9.143v-9.143z"></path>
<path d="M21.872 31.015v-1.524h6.542l-10.128-10.128 1.078-1.078 10.128 10.128v-6.542h1.524v9.143h-9.143z"></path>
<path d="M31.015 9.143h-1.524v-6.542l-10.128 10.128-1.078-1.078 10.128-10.128h-6.542v-1.524h9.143v9.143z"></path>
<path d="M9.143 0v1.524h-6.542l10.128 10.128-1.078 1.078-10.128-10.128v6.542h-1.524v-9.143h9.143z"></path>
</symbol>
<symbol id="icon-eye" viewBox="0 0 26 32">
<path d="M2.182 5.881v20.301c0 1.508 0.612 2.381 1.334 2.901 0.759 0.546 1.691 0.736 2.302 0.736h14.545c1.508 0 2.381-0.612 2.901-1.334 0.546-0.759 0.736-1.691 0.736-2.302v-17.114l-8.263-6.886h-9.919c-1.174 0-2.009 0.574-2.605 1.352-0.592 0.772-0.916 1.712-1.032 2.348zM2.059 2.648c0.798-1.041 2.024-1.921 3.759-1.921h10.445l9.191 7.659v17.795c0 0.844-0.247 2.093-1.010 3.152-0.789 1.096-2.099 1.939-4.081 1.939h-14.545c-0.844 0-2.093-0.247-3.152-1.010-1.096-0.789-1.939-2.099-1.939-4.081v-20.424l0.010-0.059c0.136-0.819 0.538-2.028 1.322-3.050z"></path>
<path d="M13.091 11.818c-3.641 0-6.373 2.226-7.178 4.909h-1.549c0.825-3.735 4.419-6.545 8.727-6.545s7.902 2.811 8.727 6.545c-0.825 3.735-4.419 6.545-8.727 6.545s-7.902-2.811-8.728-6.545h1.549c0.805 2.683 3.537 4.909 7.178 4.909s6.373-2.226 7.178-4.909c-0.805-2.683-3.537-4.909-7.178-4.909z"></path>
<path d="M14.275 17.106c-0.251 0.189-0.665 0.348-1.184 0.348s-0.933-0.16-1.184-0.348c-0.251-0.188-0.27-0.337-0.27-0.379s0.019-0.191 0.27-0.379c0.251-0.189 0.665-0.348 1.184-0.348s0.933 0.16 1.184 0.348c0.251 0.188 0.27 0.337 0.27 0.379s-0.019 0.191-0.27 0.379zM13.091 18.909c1.607 0 2.909-0.977 2.909-2.182s-1.302-2.182-2.909-2.182c-1.607 0-2.909 0.977-2.909 2.182s1.302 2.182 2.909 2.182z"></path>
</symbol>
<symbol id="icon-folder" viewBox="0 0 36 32">
<path d="M17.778 7.111c-0.471 0-0.924-0.187-1.257-0.521l-4.813-4.813h-8.152c-0.982 0-1.778 0.796-1.778 1.778v24.889c0 0.982 0.796 1.778 1.778 1.778h28.444c0.982 0 1.778-0.796 1.778-1.778v-19.556c0-0.982-0.796-1.778-1.778-1.778h-14.222zM12.444 0l5.333 5.333h14.222c1.964 0 3.556 1.592 3.556 3.556v19.556c0 1.964-1.592 3.556-3.556 3.556h-28.444c-1.964 0-3.556-1.592-3.556-3.556v-24.889c0-1.964 1.592-3.556 3.556-3.556h8.889z"></path>
<path d="M16 23.111h12.444v3.556h-12.444v-3.556z"></path>
</symbol>
<symbol id="icon-Image" viewBox="0 0 32 32">
<path fill="#c4c4c4" style="fill: var(--color1, #c4c4c4)" d="M3.2 9.6c0-5.302 4.298-9.6 9.6-9.6h6.4c5.302 0 9.6 4.298 9.6 9.6v6.4c0 5.302-4.298 9.6-9.6 9.6h-6.4c-5.302 0-9.6-4.298-9.6-9.6v-6.4z"></path>
</symbol>
<symbol id="icon-logo" viewBox="0 0 32 32">
<path fill="#011aff" style="fill: var(--color2, #011aff)" d="M4.35 15.683c-0.862 0.28-1.334 1.206-1.054 2.068l4.057 12.486c0.28 0.862 1.206 1.334 2.068 1.054l10.145-3.296c4.31-1.4 6.668-6.029 5.268-10.339-0.192-0.59-0.444-1.144-0.748-1.656-0.91 0.957-2.064 1.707-3.407 2.144l-10.145 3.296c-0.862 0.28-1.788-0.192-2.068-1.054l-1.775-5.462-2.341 0.761z"></path>
<path fill="#00a3ff" style="fill: var(--color3, #00a3ff)" d="M24.085 15.999c-0.91 0.957-2.064 1.707-3.407 2.144l-10.145 3.296c-0.862 0.28-1.788-0.192-2.068-1.054l-1.775-5.462 7.803-2.535c3.72-1.209 7.677 0.383 9.591 3.612z"></path>
<path fill="#6cccff" style="fill: var(--color4, #6cccff)" d="M5.462 5.832c-0.862 0.28-1.334 1.206-1.054 2.068l2.282 7.023 7.803-2.535c3.72-1.209 7.677 0.383 9.591 3.612 2.008-2.112 2.824-5.229 1.861-8.195-1.4-4.31-6.029-6.668-10.339-5.268l-10.145 3.296z"></path>
</symbol>
<symbol id="icon-Microphone" viewBox="0 0 20 32">
<path d="M9.143 25.905h1.524v6.095h-1.524v-6.095z"></path>
<path d="M4.571 30.476h10.667v1.524h-10.667v-1.524z"></path>
<path d="M0.707 10.667c-0.391 0-0.707 0.317-0.707 0.707v3.864c0 5.891 4.434 10.667 9.905 10.667s9.905-4.776 9.905-10.667v-3.864c0-0.391-0.317-0.707-0.707-0.707s-0.707 0.317-0.707 0.707v3.864c0 5.049-3.801 9.143-8.49 9.143s-8.49-4.093-8.49-9.143v-3.864c0-0.391-0.317-0.707-0.707-0.707z"></path>
<path d="M15.238 16c0 2.946-2.388 5.333-5.333 5.333s-5.333-2.388-5.333-5.333v-9.143c0-2.946 2.388-5.333 5.333-5.333s5.333 2.388 5.333 5.333v9.143zM9.905 0c-3.787 0-6.857 3.070-6.857 6.857v9.143c0 3.787 3.070 6.857 6.857 6.857s6.857-3.070 6.857-6.857v-9.143c0-3.787-3.070-6.857-6.857-6.857z"></path>
</symbol>
<symbol id="icon-Options" viewBox="0 0 144 32">
<path fill="#5f616b" style="fill: var(--color5, #5f616b)" d="M32 16c0 8.837-7.163 16-16 16s-16-7.163-16-16c0-8.837 7.163-16 16-16s16 7.163 16 16z"></path>
<path fill="#5f616b" style="fill: var(--color5, #5f616b)" d="M88 16c0 8.837-7.163 16-16 16s-16-7.163-16-16 7.163-16 16-16c8.837 0 16 7.163 16 16z"></path>
<path fill="#5f616b" style="fill: var(--color5, #5f616b)" d="M144 16c0 8.837-7.163 16-16 16s-16-7.163-16-16c0-8.837 7.163-16 16-16s16 7.163 16 16z"></path>
</symbol>
<symbol id="icon-Paperclip" viewBox="0 0 32 32">
<path d="M21.065 5.071c-1.487 0.419-2.843 1.404-3.625 2.186l-0.566 0.566c-0.312 0.312-0.819 0.312-1.131 0s-0.312-0.819 0-1.131l0.566-0.566c0.915-0.915 2.5-2.080 4.322-2.594 1.864-0.526 4.025-0.372 5.86 1.463s1.989 3.996 1.463 5.86c-0.514 1.822-1.68 3.408-2.594 4.322l-10.182 10.182c-0.915 0.915-2.5 2.080-4.322 2.594-1.864 0.526-4.025 0.372-5.86-1.463s-1.989-3.996-1.463-5.86c0.514-1.822 1.679-3.408 2.594-4.322l5.091-5.091c0.575-0.575 1.572-1.311 2.733-1.638 1.202-0.339 2.628-0.242 3.829 0.959s1.299 2.627 0.96 3.829c-0.327 1.161-1.063 2.157-1.638 2.733l-4.073 4.073c-0.312 0.312-0.819 0.312-1.131 0s-0.312-0.819 0-1.131l4.073-4.073c0.443-0.443 0.997-1.211 1.23-2.036 0.221-0.783 0.149-1.564-0.551-2.263s-1.48-0.772-2.263-0.551c-0.825 0.233-1.593 0.787-2.036 1.23l-5.091 5.091c-0.782 0.782-1.766 2.139-2.186 3.625-0.408 1.445-0.279 2.961 1.054 4.294s2.849 1.462 4.294 1.054c1.487-0.419 2.843-1.404 3.625-2.186l10.182-10.182c0.782-0.782 1.766-2.139 2.186-3.625 0.408-1.445 0.279-2.961-1.054-4.294s-2.849-1.462-4.294-1.054z"></path>
</symbol>
<symbol id="icon-pdf-1" viewBox="0 0 32 32">
<path fill="#011aff" style="fill: var(--color2, #011aff)" d="M2.909 8.727c0-4.82 3.907-8.727 8.727-8.727h8.727c4.82 0 8.727 3.907 8.727 8.727v8.727c0 4.82-3.907 8.727-8.727 8.727h-8.727c-4.82 0-8.727-3.907-8.727-8.727v-8.727z"></path>
<path fill="#f3f4ff" style="fill: var(--color6, #f3f4ff)" d="M8.708 16.054c-0.16 0-0.295-0.054-0.403-0.163s-0.163-0.243-0.163-0.403c0-0.16 0.054-0.295 0.163-0.403s0.243-0.163 0.403-0.163c0.155 0 0.287 0.054 0.396 0.163s0.163 0.243 0.163 0.403c0 0.16-0.054 0.295-0.163 0.403s-0.241 0.163-0.396 0.163z"></path>
<path fill="#f3f4ff" style="fill: var(--color6, #f3f4ff)" d="M13.992 12.214c0 0.274-0.065 0.533-0.194 0.776s-0.336 0.442-0.621 0.597c-0.284 0.15-0.649 0.225-1.094 0.225h-0.977v2.188h-0.884v-5.392h1.862c0.414 0 0.763 0.072 1.047 0.217 0.29 0.14 0.504 0.331 0.644 0.574 0.145 0.243 0.217 0.515 0.217 0.815zM12.084 13.122c0.336 0 0.587-0.080 0.752-0.241s0.248-0.383 0.248-0.667c0-0.29-0.083-0.515-0.248-0.675s-0.416-0.241-0.752-0.241h-0.977v1.823h0.977z"></path>
<path fill="#f3f4ff" style="fill: var(--color6, #f3f4ff)" d="M16.597 10.608c0.574 0 1.076 0.111 1.505 0.334 0.434 0.217 0.768 0.533 1.001 0.946 0.238 0.409 0.357 0.887 0.357 1.435s-0.119 1.024-0.357 1.427c-0.233 0.403-0.566 0.714-1.001 0.931-0.429 0.212-0.931 0.318-1.505 0.318h-1.761v-5.392h1.761zM16.597 15.325c0.626 0 1.107-0.178 1.443-0.535 0.341-0.357 0.512-0.846 0.512-1.466 0-0.626-0.171-1.115-0.512-1.466-0.336-0.357-0.817-0.535-1.443-0.535h-0.877v4.003h0.877z"></path>
<path fill="#f3f4ff" style="fill: var(--color6, #f3f4ff)" d="M23.508 10.608v0.69h-2.288v1.637h1.784v0.683h-1.784v2.382h-0.884v-5.391h3.173z"></path>
</symbol>
<symbol id="icon-pdf-2" viewBox="0 0 32 32">
<path fill="#3843ad" style="fill: var(--color7, #3843ad)" d="M3.2 11.2c0-5.302 4.298-9.6 9.6-9.6h6.4c5.302 0 9.6 4.298 9.6 9.6v6.4c0 5.302-4.298 9.6-9.6 9.6h-6.4c-5.302 0-9.6-4.298-9.6-9.6v-6.4z"></path>
<path fill="#011aff" style="fill: var(--color2, #011aff)" d="M5.2 10.8c0-3.976 3.224-7.2 7.2-7.2h7.2c3.976 0 7.2 3.224 7.2 7.2v7.2c0 3.976-3.224 7.2-7.2 7.2h-7.2c-3.976 0-7.2-3.224-7.2-7.2v-7.2z"></path>
<path fill="#f3f4ff" style="fill: var(--color6, #f3f4ff)" d="M9.984 16.845c-0.132 0-0.243-0.045-0.333-0.134s-0.134-0.201-0.134-0.333c0-0.132 0.045-0.243 0.134-0.333s0.201-0.134 0.333-0.134c0.128 0 0.237 0.045 0.326 0.134s0.134 0.201 0.134 0.333c0 0.132-0.045 0.243-0.134 0.333s-0.198 0.134-0.326 0.134z"></path>
<path fill="#f3f4ff" style="fill: var(--color6, #f3f4ff)" d="M14.344 13.677c0 0.226-0.053 0.439-0.16 0.64s-0.277 0.365-0.512 0.493c-0.235 0.124-0.535 0.186-0.902 0.186h-0.806v1.805h-0.73v-4.448h1.536c0.341 0 0.629 0.060 0.864 0.179 0.239 0.115 0.416 0.273 0.531 0.474 0.119 0.201 0.179 0.425 0.179 0.672zM12.769 14.426c0.277 0 0.484-0.066 0.621-0.198s0.205-0.316 0.205-0.55c0-0.239-0.068-0.425-0.205-0.557s-0.343-0.198-0.621-0.198h-0.806v1.504h0.806z"></path>
<path fill="#f3f4ff" style="fill: var(--color6, #f3f4ff)" d="M16.492 12.352c0.474 0 0.887 0.092 1.242 0.275 0.358 0.179 0.634 0.439 0.826 0.781 0.196 0.337 0.294 0.732 0.294 1.184s-0.098 0.845-0.294 1.178c-0.192 0.333-0.467 0.589-0.826 0.768-0.354 0.175-0.768 0.262-1.242 0.262h-1.453v-4.448h1.453zM16.492 16.243c0.516 0 0.913-0.147 1.19-0.442 0.282-0.294 0.422-0.698 0.422-1.21 0-0.516-0.141-0.919-0.422-1.21-0.277-0.294-0.674-0.442-1.19-0.442h-0.723v3.302h0.723z"></path>
<path fill="#f3f4ff" style="fill: var(--color6, #f3f4ff)" d="M22.194 12.352v0.57h-1.888v1.35h1.472v0.563h-1.472v1.965h-0.73v-4.448h2.618z"></path>
</symbol>
<symbol id="icon-Plate" viewBox="0 0 32 32">
<path d="M0 11.556c0-6.382 5.174-11.556 11.556-11.556h8.889c6.382 0 11.556 5.174 11.556 11.556v8.889c0 6.382-5.174 11.556-11.556 11.556h-8.889c-6.382 0-11.556-5.174-11.556-11.556v-8.889z"></path>
</symbol>
<symbol id="icon-plate-2" viewBox="0 0 32 32">
<path fill="#011aff" style="fill: var(--color2, #011aff)" d="M2.909 8.727c0-4.82 3.907-8.727 8.727-8.727h8.727c4.82 0 8.727 3.907 8.727 8.727v8.727c0 4.82-3.907 8.727-8.727 8.727h-8.727c-4.82 0-8.727-3.907-8.727-8.727v-8.727z"></path>
</symbol>
<symbol id="icon-recepient" viewBox="0 0 54 32">
<path fill="#fafafc" style="fill: var(--color8, #fafafc)" d="M8.678 7.593c0-0.599 0.486-1.085 1.085-1.085h34.712c0.599 0 1.085 0.486 1.085 1.085v12.475c0 0.599-0.486 1.085-1.085 1.085h-34.712c-0.599 0-1.085-0.486-1.085-1.085v-12.475z"></path>
<path fill="#fafafc" style="fill: var(--color8, #fafafc)" d="M26.312 4.695c0.431-0.48 1.183-0.48 1.614 0l0.856 0.953c0.627 0.698 0.132 1.81-0.807 1.81h-1.712c-0.939 0-1.434-1.111-0.807-1.81l0.856-0.953z"></path>
</symbol>
<symbol id="icon-reminder" viewBox="0 0 68 32">
<path fill="#f5f6f9" style="fill: var(--color9, #f5f6f9)" d="M9.532 9.532c0-0.752 0.61-1.362 1.362-1.362h45.617c0.752 0 1.362 0.61 1.362 1.362v7.489c0 0.752-0.61 1.362-1.362 1.362h-45.617c-0.752 0-1.362-0.61-1.362-1.362v-7.489z"></path>
<path fill="#fafafc" style="fill: var(--color8, #fafafc)" d="M32.694 7.239c0.54-0.596 1.477-0.596 2.017 0l0.169 0.186c0.794 0.875 0.173 2.277-1.009 2.277h-0.338c-1.182 0-1.802-1.402-1.009-2.277l0.169-0.186z"></path>
<path fill="#3a3e61" style="fill: var(--color10, #3a3e61)" d="M17.021 13.277c0 0.94-0.762 1.702-1.702 1.702s-1.702-0.762-1.702-1.702c0-0.94 0.762-1.702 1.702-1.702s1.702 0.762 1.702 1.702z"></path>
<path fill="#e5e5eb" style="fill: var(--color11, #e5e5eb)" d="M15.465 12.255h-0.292v0.875h-0.875v0.292h0.875v0.875h0.292v-0.875h0.875v-0.292h-0.875v-0.875z"></path>
</symbol>
<symbol id="icon-Search" viewBox="0 0 32 32">
<path d="M21.818 22.847l1.029-1.029 8.228 8.228-1.029 1.029-8.228-8.228z"></path>
<path d="M13.091 24.727c-6.427 0-11.636-5.21-11.636-11.636s5.21-11.636 11.636-11.636c6.427 0 11.636 5.21 11.636 11.636s-5.21 11.636-11.636 11.636zM13.091 26.182c7.23 0 13.091-5.861 13.091-13.091s-5.861-13.091-13.091-13.091c-7.23 0-13.091 5.861-13.091 13.091s5.861 13.091 13.091 13.091z"></path>
</symbol>
<symbol id="icon-Send" viewBox="0 0 36 32">
<path fill="#000" style="fill: var(--color12, #000)" d="M8.828 11.77c0-4.063 3.294-7.356 7.356-7.356h3.678c4.063 0 7.356 3.294 7.356 7.356v3.678c0 4.063-3.294 7.356-7.356 7.356h-3.678c-4.063 0-7.356-3.294-7.356-7.356v-3.678z"></path>
<path fill="#fafaff" style="fill: var(--color13, #fafaff)" d="M14.65 13.877c-0.408-0.214-0.39-0.804 0.030-0.992l5.97-2.676c0.463-0.207 0.937 0.267 0.729 0.729l-2.676 5.97c-0.188 0.42-0.778 0.438-0.992 0.030l-1.026-1.958c-0.017-0.033-0.044-0.060-0.078-0.078l-1.958-1.026zM14.831 13.22c-0.14 0.063-0.146 0.259-0.010 0.331l1.94 1.016 4.009-4.009-5.939 2.662zM21.030 10.818l-4.009 4.009 1.016 1.94c0.071 0.136 0.268 0.13 0.331-0.010l2.662-5.939z"></path>
</symbol>
<symbol id="icon-trash" viewBox="0 0 29 32">
<path d="M24.727 5.818v20.364c0 2.41-1.954 4.364-4.364 4.364h-11.636c-2.41 0-4.364-1.954-4.364-4.364v-20.364h20.364zM2.909 4.364v21.818c0 3.213 2.605 5.818 5.818 5.818h11.636c3.213 0 5.818-2.605 5.818-5.818v-21.818h-23.273z"></path>
<path d="M0 4.364h29.091v1.455h-29.091v-1.455z"></path>
<path d="M10.182 10.182h1.455v16h-1.455v-16z"></path>
<path d="M17.455 10.182h1.455v16h-1.455v-16z"></path>
<path d="M16 1.455c0.803 0 1.455 0.651 1.455 1.455v1.455h-5.818v-1.455c0-0.803 0.651-1.455 1.455-1.455h2.909zM13.091 0c-1.607 0-2.909 1.302-2.909 2.909v2.909h8.727v-2.909c0-1.607-1.302-2.909-2.909-2.909h-2.909z"></path>
</symbol>
<symbol id="icon-Unread" viewBox="0 0 40 32">
<path d="M0 14.667c0-8.1 6.566-14.667 14.667-14.667h10.667c8.1 0 14.667 6.566 14.667 14.667v2.667c0 8.1-6.567 14.667-14.667 14.667h-10.667c-8.1 0-14.667-6.567-14.667-14.667v-2.667z"></path>
</symbol>
<symbol id="icon-user" viewBox="0 0 32 32">
<path fill="#c4c4c4" style="fill: var(--color1, #c4c4c4)" d="M0 12c0-6.627 5.373-12 12-12h8c6.627 0 12 5.373 12 12v8c0 6.627-5.373 12-12 12h-8c-6.627 0-12-5.373-12-12v-8z"></path>
</symbol>
</defs>
</svg>
